<?xml version="1.0" standalone="yes"?>
<svg xmlns="http://www.w3.org/2000/svg" width="500" height="500">
<path style="fill:#010101; stroke:none;" d="M0 0L0 500L500 500L500 0L0 0z"/>
<path style="fill:#cdcdcd; stroke:none;" d="M249.667 66.3333C249.222 66.7779 250.278 66.7221 250.333 66.6667C250.778 66.2224 249.722 66.2777 249.667 66.3333z"/>
<path style="fill:#e5e5e5; stroke:none;" d="M249.667 67.3333C249.222 67.778 250.278 67.7221 250.333 67.6667C250.778 67.2224 249.722 67.2777 249.667 67.3333z"/>
<path style="fill:#ffffff; stroke:none;" d="M246 70C245.529 79.416 237.911 89.6239 233.21 97.5756C228.222 106.011 224.653 115.314 220.166 124.004C218.194 127.822 215.447 131.148 213.508 135C192.896 175.962 171.999 216.663 150.484 257.13C143.915 269.484 136.989 282.348 131.02 295C127.085 303.341 123.678 314.505 117 321C116.699 323.59 116.027 324.346 114 326C113.448 333.045 108.14 339.795 104.948 346C102.565 350.631 100.934 355.473 97 359C96.9316 360.875 96.6023 362.208 96 364L325 364C322.476 356.587 318.985 348.893 315.432 341.91C312.336 335.826 308.105 329.83 307 323C300.722 317.047 298.122 305.778 294.451 298C292.113 293.048 288.883 288.459 288 283C284.742 279.642 283.494 275.139 281.395 271C277.438 263.196 270.644 253.841 270 245C261.189 236.695 266.216 229.015 270.752 220C277.907 205.782 286.4 191.909 292 177C304.39 195.687 311.77 218.317 322.212 238C335.789 263.593 349.032 289.893 361.294 316.285C366.198 326.84 371.762 337.22 376.142 348C378.078 352.765 379.849 359.991 384.459 362.972C388.972 365.891 398.764 364 404 364C398.559 350.589 390.833 337.886 384.245 325C375.596 308.079 367.504 290.665 358.454 274C349.267 257.082 339.723 240.451 331.657 223C326.298 211.404 319.707 200.404 313.926 189C312.288 185.77 310.556 178.489 307 178C305.932 170.151 299.695 160.306 295 154C290.072 162.444 285.722 171.319 281.222 180C278.757 184.756 276.825 190.213 273 194C272.634 199.961 268.281 205.798 265.552 211C261.38 218.95 257.378 227.02 253.258 235C251.083 239.214 249.396 243.64 246 247C245.574 251.462 242.695 255.966 240.742 260C234.986 271.888 224.78 284.854 223 298L163 298C176.215 271.089 190.81 244.972 203.778 218C208.225 208.75 218.229 197.553 218 187C221.51 184.701 222.908 180.689 224.753 177L234.706 157.015C236.609 153.176 239.179 150.4 239 146C240.797 146 240.521 145.986 242 145C241.591 142.548 241.181 142.274 243 140L244 141C246.084 125.081 262.594 112.24 264.505 96C265.605 86.6457 254.714 79.1707 254 70C251.915 70 252.276 70.1381 252 68C251.53 68 248.207 67.6899 248 68C246.454 70.3188 248.859 70.7147 246 70z"/>
<path style="fill:#bfbbbb; stroke:none;" d="M247.333 69.6667C247.278 69.7221 247.222 70.7779 247.667 70.3333C247.722 70.2777 247.778 69.2223 247.333 69.6667z"/>
<path style="fill:#c9c3c3; stroke:none;" d="M252.333 69.6667C252.278 69.7221 252.222 70.7779 252.667 70.3333C252.722 70.2777 252.778 69.2223 252.333 69.6667z"/>
<path style="fill:#c1bdbd; stroke:none;" d="M246 71L245 75C246.146 73.3596 246.393 72.924 246 71z"/>
<path style="fill:#d1c7cb; stroke:none;" d="M253 71L253 73L255 73C254.455 71.3649 254.635 71.545 253 71z"/>
<path style="fill:#818181; stroke:none;" d="M244 74L245 75L244 74z"/>
<path style="fill:#d1cbcb; stroke:none;" d="M254 74L255 75L254 74z"/>
<path style="fill:#d3cfcf; stroke:none;" d="M244.333 75.6667C244.278 75.7221 244.222 76.7779 244.667 76.3333C244.722 76.2777 244.778 75.2222 244.333 75.6667z"/>
<path style="fill:#b9b9b9; stroke:none;" d="M243 76L243 79C243.696 77.4463 243.696 77.5537 243 76z"/>
<path style="fill:#818181; stroke:none;" d="M242 78L243 79L242 78z"/>
<path style="fill:#dfd7db; stroke:none;" d="M242.333 79.6667C242.278 79.7221 242.222 80.7779 242.667 80.3333C242.722 80.2776 242.778 79.2223 242.333 79.6667z"/>
<path style="fill:#e7dfe3; stroke:none;" d="M257 79L257 81L259 81C258.455 79.3648 258.635 79.5451 257 79z"/>
<path style="fill:#bfbfbf; stroke:none;" d="M241.333 80.6667C241.278 80.7221 241.222 81.7778 241.667 81.3333C241.722 81.2777 241.778 80.2223 241.333 80.6667z"/>
<path style="fill:#e9e9e9; stroke:none;" d="M240 82C239.132 84.3546 238.426 86.5309 238 89C239.802 86.829 240.907 84.6068 242 82L240 82z"/>
<path style="fill:#d3d3d3; stroke:none;" d="M237 88L236 92C237.303 90.3324 237.553 90.0078 237 88z"/>
<path style="fill:#d7d7d7; stroke:none;" d="M235 92L234 96C235.303 94.3323 235.553 94.0078 235 92z"/>
<path style="fill:#ababab; stroke:none;" d="M265 94L266 95L265 94z"/>
<path style="fill:#d5d5d5; stroke:none;" d="M265 95L264 99C265.303 97.3324 265.553 97.0078 265 95z"/>
<path style="fill:#d9cfcf; stroke:none;" d="M233.333 96.6667C233.278 96.7221 233.222 97.7778 233.667 97.3333C233.722 97.2777 233.778 96.2223 233.333 96.6667z"/>
<path style="fill:#dfdfdf; stroke:none;" d="M263.333 99.6667C263.278 99.7223 263.222 100.778 263.667 100.333C263.722 100.278 263.778 99.2222 263.333 99.6667z"/>
<path style="fill:#dbd3db; stroke:none;" d="M231.333 100.667C231.278 100.722 231.222 101.778 231.667 101.333C231.722 101.278 231.778 100.222 231.333 100.667z"/>
<path style="fill:#dbdbdb; stroke:none;" d="M262.333 101.667C262.278 101.722 262.222 102.778 262.667 102.333C262.722 102.278 262.778 101.222 262.333 101.667z"/>
<path style="fill:#e7cdcd; stroke:none;" d="M261.333 103.667C261.278 103.722 261.222 104.778 261.667 104.333C261.722 104.278 261.778 103.222 261.333 103.667z"/>
<path style="fill:#e1e1e1; stroke:none;" d="M229.333 104.667C229.278 104.722 229.222 105.778 229.667 105.333C229.722 105.278 229.778 104.222 229.333 104.667z"/>
<path style="fill:#dfdfdf; stroke:none;" d="M227.333 108.667C227.278 108.722 227.222 109.778 227.667 109.333C227.722 109.278 227.778 108.222 227.333 108.667z"/>
<path style="fill:#d7d7d7; stroke:none;" d="M225.333 112.667C225.278 112.722 225.222 113.778 225.667 113.333C225.722 113.278 225.778 112.222 225.333 112.667z"/>
<path style="fill:#b7b7b7; stroke:none;" d="M257 112L258 113L257 112z"/>
<path style="fill:#cdcdcd; stroke:none;" d="M255.333 115.667C255.278 115.722 255.222 116.778 255.667 116.333C255.722 116.278 255.778 115.222 255.333 115.667z"/>
<path style="fill:#e5e5e5; stroke:none;" d="M223.333 116.667C223.278 116.722 223.222 117.778 223.667 117.333C223.722 117.278 223.778 116.222 223.333 116.667z"/>
<path style="fill:#dfdfdd; stroke:none;" d="M221.333 120.667C221.278 120.722 221.222 121.778 221.667 121.333C221.722 121.278 221.778 120.222 221.333 120.667z"/>
<path style="fill:#ababab; stroke:none;" d="M253 120L254 121L253 120M220 121L221 122L220 121z"/>
<path style="fill:#e7e7e3; stroke:none;" d="M220 122C218.957 124.095 218.397 125.699 218 128C219.631 125.957 220.444 124.583 220 122z"/>
<path style="fill:#ababab; stroke:none;" d="M251 124L252 125L251 124z"/>
<path style="fill:#d3cbcb; stroke:none;" d="M217.333 127.667C217.278 127.722 217.222 128.778 217.667 128.333C217.722 128.278 217.778 127.222 217.333 127.667z"/>
<path style="fill:#cdcdcd; stroke:none;" d="M249.333 127.667C249.278 127.722 249.222 128.778 249.667 128.333C249.722 128.278 249.778 127.222 249.333 127.667z"/>
<path style="fill:#ababab; stroke:none;" d="M216 129L217 130L216 129z"/>
<path style="fill:#cdcdcd; stroke:none;" d="M247.333 131.667C247.278 131.722 247.222 132.778 247.667 132.333C247.722 132.278 247.778 131.222 247.333 131.667z"/>
<path style="fill:#d5d5d5; stroke:none;" d="M246.333 133.667C246.278 133.722 246.222 134.778 246.667 134.333C246.722 134.278 246.778 133.222 246.333 133.667z"/>
<path style="fill:#dfdfdf; stroke:none;" d="M245 135L244 139C245.146 137.36 245.393 136.924 245 135z"/>
<path style="fill:#dddddd; stroke:none;" d="M242 140L241 144C242.303 142.332 242.553 142.008 242 140z"/>
<path style="fill:#e9e9e9; stroke:none;" d="M210 141C208.682 143.327 207.739 145.433 207 148C209.3 145.878 210.621 144.163 210 141z"/>
<path style="fill:#ebebd5; stroke:none;" d="M239.333 146.667C239.278 146.722 239.222 147.778 239.667 147.333C239.722 147.278 239.778 146.222 239.333 146.667z"/>
<path style="fill:#ffabab; stroke:none;" d="M240 146L241 147L240 146z"/>
<path style="fill:#d1d1d1; stroke:none;" d="M206.333 148.667C206.278 148.722 206.222 149.778 206.667 149.333C206.722 149.278 206.778 148.222 206.333 148.667z"/>
<path style="fill:#d7d7d7; stroke:none;" d="M205 150L202 158C204.379 155.617 205.923 153.372 205 150z"/>
<path style="fill:#cdcdcd; stroke:none;" d="M236.333 152.667C236.278 152.722 236.222 153.778 236.667 153.333C236.722 153.278 236.778 152.222 236.333 152.667z"/>
<path style="fill:#c7c7c7; stroke:none;" d="M294 153L294 155C295.635 154.455 295.455 154.635 296 153L294 153z"/>
<path style="fill:#ababab; stroke:none;" d="M293 154L294 155L293 154M235 155L236 156L235 155z"/>
<path style="fill:#e7e1e1; stroke:none;" d="M296.333 155.667C296.278 155.722 296.222 156.778 296.667 156.333C296.722 156.278 296.778 155.222 296.333 155.667z"/>
<path style="fill:#d9d7d5; stroke:none;" d="M292 156L292 159C293.015 157.861 293.309 157.388 294 156L292 156z"/>
<path style="fill:#c9c1c1; stroke:none;" d="M297.333 156.667C297.278 156.722 297.222 157.778 297.667 157.333C297.722 157.278 297.778 156.222 297.333 156.667z"/>
<path style="fill:#cdcdcd; stroke:none;" d="M234 157L235 158L234 157z"/>
<path style="fill:#d3d3cb; stroke:none;" d="M201.333 158.667C201.278 158.722 201.222 159.778 201.667 159.333C201.722 159.278 201.778 158.222 201.333 158.667z"/>
<path style="fill:#b9b9b9; stroke:none;" d="M291 158L289 164C290.915 161.968 291.744 160.735 291 158z"/>
<path style="fill:#c7bfbf; stroke:none;" d="M298.333 158.667C298.278 158.722 298.222 159.778 298.667 159.333C298.722 159.278 298.778 158.222 298.333 158.667z"/>
<path style="fill:#f3efeb; stroke:none;" d="M200 160L200 163C201.015 161.861 201.309 161.388 202 160L200 160z"/>
<path style="fill:#d1c9c9; stroke:none;" d="M299.333 160.667C299.278 160.722 299.222 161.778 299.667 161.333C299.722 161.278 299.778 160.222 299.333 160.667z"/>
<path style="fill:#d5d5d5; stroke:none;" d="M199.333 162.667C199.278 162.722 199.222 163.778 199.667 163.333C199.722 163.278 199.778 162.222 199.333 162.667z"/>
<path style="fill:#cbc3c3; stroke:none;" d="M300 163L301 164L300 163z"/>
<path style="fill:#edebeb; stroke:none;" d="M288 164C287.132 166.355 286.426 168.531 286 171C287.802 168.829 288.907 166.607 290 164L288 164z"/>
<path style="fill:#d5d5d1; stroke:none;" d="M301.333 164.667C301.278 164.722 301.222 165.778 301.667 165.333C301.722 165.278 301.778 164.222 301.333 164.667z"/>
<path style="fill:#d7d3d7; stroke:none;" d="M197.333 166.667C197.278 166.722 197.222 167.778 197.667 167.333C197.722 167.278 197.778 166.222 197.333 166.667z"/>
<path style="fill:#e5e1e1; stroke:none;" d="M303.333 168.667C303.278 168.722 303.222 169.778 303.667 169.333C303.722 169.278 303.778 168.222 303.333 168.667z"/>
<path style="fill:#e1ddd9; stroke:none;" d="M195.333 170.667C195.278 170.722 195.222 171.778 195.667 171.333C195.722 171.278 195.778 170.222 195.333 170.667z"/>
<path style="fill:#818181; stroke:none;" d="M285 170L286 171L285 170z"/>
<path style="fill:#ababab; stroke:none;" d="M194 172L195 173L194 172z"/>
<path style="fill:#d1d1d1; stroke:none;" d="M284.333 172.667C284.278 172.722 284.222 173.778 284.667 173.333C284.722 173.278 284.778 172.222 284.333 172.667z"/>
<path style="fill:#e3e3e3; stroke:none;" d="M305.333 172.667C305.278 172.722 305.222 173.778 305.667 173.333C305.722 173.278 305.778 172.222 305.333 172.667z"/>
<path style="fill:#e3e3df; stroke:none;" d="M193 173C192.132 175.355 191.426 177.531 191 180C192.802 177.829 193.907 175.607 195 173L193 173z"/>
<path style="fill:#d9d9d9; stroke:none;" d="M283.333 174.667C283.278 174.722 283.222 175.778 283.667 175.333C283.722 175.278 283.778 174.222 283.333 174.667z"/>
<path style="fill:#cfbfcf; stroke:none;" d="M282.333 176.667C282.278 176.722 282.222 177.778 282.667 177.333C282.722 177.278 282.778 176.222 282.333 176.667z"/>
<path style="fill:#e5e1e1; stroke:none;" d="M307.333 176.667C307.278 176.722 307.222 177.778 307.667 177.333C307.722 177.278 307.778 176.222 307.333 176.667z"/>
<path style="fill:#817979; stroke:none;" d="M292 177L293 178L292 177z"/>
<path style="fill:#d1d1d1; stroke:none;" d="M281.333 178.667C281.278 178.722 281.222 179.778 281.667 179.333C281.722 179.278 281.778 178.222 281.333 178.667z"/>
<path style="fill:#b3b3b3; stroke:none;" d="M291 178L290 182C292.64 180.416 291.789 179.447 294 180C293.02 178.217 293.092 178.406 291 178z"/>
<path style="fill:#cfcfcf; stroke:none;" d="M190 179L189 183C190.303 181.332 190.553 181.008 190 179z"/>
<path style="fill:#c3c3c3; stroke:none;" d="M294 180L295 181L294 180z"/>
<path style="fill:#cdbfbf; stroke:none;" d="M280 181L281 182L280 181z"/>
<path style="fill:#c7c7c7; stroke:none;" d="M310.333 181.667C310.278 181.722 310.222 182.778 310.667 182.333C310.722 182.278 310.778 181.222 310.333 181.667z"/>
<path style="fill:#c7bfc7; stroke:none;" d="M279.333 182.667C279.278 182.722 279.222 183.778 279.667 183.333C279.722 183.278 279.778 182.222 279.333 182.667z"/>
<path style="fill:#e3e3e1; stroke:none;" d="M188 183L185 191C187.398 188.629 188.696 186.107 190 183L188 183z"/>
<path style="fill:#cfcfcf; stroke:none;" d="M311.333 183.667C311.278 183.722 311.222 184.778 311.667 184.333C311.722 184.278 311.778 183.222 311.333 183.667z"/>
<path style="fill:#dbdbc9; stroke:none;" d="M312.333 185.667C312.278 185.722 312.222 186.778 312.667 186.333C312.722 186.278 312.778 185.222 312.333 185.667z"/>
<path style="fill:#c1c1c1; stroke:none;" d="M277.333 186.667C277.278 186.722 277.222 187.778 277.667 187.333C277.722 187.278 277.778 186.222 277.333 186.667z"/>
<path style="fill:#dfdfdf; stroke:none;" d="M218 187L218 189C219.635 188.455 219.455 188.635 220 187L218 187z"/>
<path style="fill:#ababab; stroke:none;" d="M313 187L314 188L313 187z"/>
<path style="fill:#cfcfcf; stroke:none;" d="M298 188L299 189L298 188z"/>
<path style="fill:#c7c7c7; stroke:none;" d="M276 189L277 190L276 189z"/>
<path style="fill:#d7d7d7; stroke:none;" d="M314.333 189.667C314.278 189.722 314.222 190.778 314.667 190.333C314.722 190.278 314.778 189.222 314.333 189.667z"/>
<path style="fill:#c5c5c5; stroke:none;" d="M275.333 190.667C275.278 190.722 275.222 191.778 275.667 191.333C275.722 191.278 275.778 190.222 275.333 190.667z"/>
<path style="fill:#cdcdcd; stroke:none;" d="M299 190L300 191L299 190z"/>
<path style="fill:#e1dbdb; stroke:none;" d="M184.333 191.667C184.278 191.722 184.222 192.778 184.667 192.333C184.722 192.278 184.778 191.222 184.333 191.667z"/>
<path style="fill:#ababab; stroke:none;" d="M217 191L218 192L217 191z"/>
<path style="fill:#dbdbdb; stroke:none;" d="M315.333 191.667C315.278 191.722 315.222 192.778 315.667 192.333C315.722 192.278 315.778 191.222 315.333 191.667z"/>
<path style="fill:#ababab; stroke:none;" d="M183 193L184 194L183 193z"/>
<path style="fill:#c7c7c7; stroke:none;" d="M274 193L275 194L274 193z"/>
<path style="fill:#ababab; stroke:none;" d="M215 195L216 196L215 195z"/>
<path style="fill:#c9c9c9; stroke:none;" d="M273 195L274 196L273 195z"/>
<path style="fill:#d1d1d1; stroke:none;" d="M302 196L303 197L302 196z"/>
<path style="fill:#cfc9c9; stroke:none;" d="M272 197L273 198L272 197z"/>
<path style="fill:#cdcdcd; stroke:none;" d="M271.333 198.667C271.278 198.722 271.222 199.778 271.667 199.333C271.722 199.278 271.778 198.222 271.333 198.667z"/>
<path style="fill:#cfcfcf; stroke:none;" d="M281 198L282 199L281 198z"/>
<path style="fill:#d3d3d3; stroke:none;" d="M303 198L304 199L303 198z"/>
<path style="fill:#dfdfdf; stroke:none;" d="M179.667 200.333C179.222 200.778 180.278 200.722 180.333 200.667C180.778 200.222 179.722 200.278 179.667 200.333z"/>
<path style="fill:#cdcdcd; stroke:none;" d="M270.333 200.667C270.278 200.722 270.222 201.778 270.667 201.333C270.722 201.278 270.778 200.222 270.333 200.667z"/>
<path style="fill:#cfc9c9; stroke:none;" d="M280 200L281 201L280 200z"/>
<path style="fill:#ffabab; stroke:none;" d="M179 201L180 202L179 201z"/>
<path style="fill:#dfdbdf; stroke:none;" d="M178 202L177 207C178.366 205.369 179.142 203.962 180 202L178 202z"/>
<path style="fill:#d1cdcd; stroke:none;" d="M269.333 202.667C269.278 202.722 269.222 203.778 269.667 203.333C269.722 203.278 269.778 202.222 269.333 202.667z"/>
<path style="fill:#bfbfbf; stroke:none;" d="M321 203L322 204L321 203z"/>
<path style="fill:#d1cdcd; stroke:none;" d="M268.333 204.667C268.278 204.722 268.222 205.778 268.667 205.333C268.722 205.278 268.778 204.222 268.333 204.667z"/>
<path style="fill:#c9c9c9; stroke:none;" d="M278 204L279 205L278 204z"/>
<path style="fill:#ffabab; stroke:none;" d="M176 206L177 207L176 206z"/>
<path style="fill:#cbc7cb; stroke:none;" d="M267.333 206.667C267.278 206.722 267.222 207.778 267.667 207.333C267.722 207.278 267.778 206.222 267.333 206.667z"/>
<path style="fill:#bdbdbd; stroke:none;" d="M277 206L278 207L277 206z"/>
<path style="fill:#bfbfbf; stroke:none;" d="M323 207L324 208L323 207z"/>
<path style="fill:#d5d5d5; stroke:none;" d="M175 208L174 212C175.303 210.332 175.553 210.008 175 208z"/>
<path style="fill:#dbd7d7; stroke:none;" d="M266.333 208.667C266.278 208.722 266.222 209.778 266.667 209.333C266.722 209.278 266.778 208.222 266.333 208.667z"/>
<path style="fill:#c7c7c7; stroke:none;" d="M276 208L277 209L276 208z"/>
<path style="fill:#bf9f9f; stroke:none;" d="M265 210L266 211L265 210z"/>
<path style="fill:#bfbfbf; stroke:none;" d="M275.333 210.667C275.278 210.722 275.222 211.778 275.667 211.333C275.722 211.278 275.778 210.222 275.333 210.667z"/>
<path style="fill:#d5d5d5; stroke:none;" d="M173.333 212.667C173.278 212.722 173.222 213.778 173.667 213.333C173.722 213.278 173.778 212.222 173.333 212.667z"/>
<path style="fill:#dfd7d7; stroke:none;" d="M264 212L263 214L265 214C265 212.147 265.3 212.65 264 212z"/>
<path style="fill:#ababab; stroke:none;" d="M274.333 212.667C274.278 212.722 274.222 213.778 274.667 213.333C274.722 213.278 274.778 212.222 274.333 212.667z"/>
<path style="fill:#e5e5e5; stroke:none;" d="M172 214L171 218C172.303 216.332 172.553 216.008 172 214z"/>
<path style="fill:#ababab; stroke:none;" d="M263 214L264 215L263 214z"/>
<path style="fill:#cdcdcd; stroke:none;" d="M273.333 214.667C273.278 214.722 273.222 215.778 273.667 215.333C273.722 215.278 273.778 214.222 273.333 214.667z"/>
<path style="fill:#b7b7b7; stroke:none;" d="M262 215L259 223C261.379 220.617 262.923 218.372 262 215z"/>
<path style="fill:#ababab; stroke:none;" d="M272.333 216.667C272.278 216.722 272.222 217.778 272.667 217.333C272.722 217.278 272.778 216.222 272.333 216.667z"/>
<path style="fill:#d9d9d9; stroke:none;" d="M170.333 218.667C170.278 218.722 170.222 219.778 170.667 219.333C170.722 219.278 170.778 218.222 170.333 218.667z"/>
<path style="fill:#bfbfbf; stroke:none;" d="M271.333 218.667C271.278 218.722 271.222 219.778 271.667 219.333C271.722 219.278 271.778 218.222 271.333 218.667z"/>
<path style="fill:#d5d5cd; stroke:none;" d="M169.333 220.667C169.278 220.722 169.222 221.778 169.667 221.333C169.722 221.278 169.778 220.222 169.333 220.667z"/>
<path style="fill:#bfbfbf; stroke:none;" d="M270.333 220.667C270.278 220.722 270.222 221.778 270.667 221.333C270.722 221.278 270.778 220.222 270.333 220.667z"/>
<path style="fill:#ababab; stroke:none;" d="M269.333 222.667C269.278 222.722 269.222 223.778 269.667 223.333C269.722 223.278 269.778 222.222 269.333 222.667z"/>
<path style="fill:#dbdbdb; stroke:none;" d="M315.333 222.667C315.278 222.722 315.222 223.778 315.667 223.333C315.722 223.278 315.778 222.222 315.333 222.667M331.333 222.667C331.278 222.722 331.222 223.778 331.667 223.333C331.722 223.278 331.778 222.222 331.333 222.667z"/>
<path style="fill:#cfc3cf; stroke:none;" d="M258 223L255 231C257.398 228.629 258.696 226.107 260 223L258 223z"/>
<path style="fill:#ababab; stroke:none;" d="M167 224L168 225L167 224M268.333 224.667C268.278 224.722 268.222 225.778 268.667 225.333C268.722 225.278 268.778 224.222 268.333 224.667z"/>
<path style="fill:#d5d5d5; stroke:none;" d="M316.333 224.667C316.278 224.722 316.222 225.778 316.667 225.333C316.722 225.278 316.778 224.222 316.333 224.667z"/>
<path style="fill:#bfbfbf; stroke:none;" d="M267 226L266 230C267.146 228.36 267.393 227.924 267 226z"/>
<path style="fill:#cdcdcd; stroke:none;" d="M317.333 226.667C317.278 226.722 317.222 227.778 317.667 227.333C317.722 227.278 317.778 226.222 317.333 226.667z"/>
<path style="fill:#d7d7d7; stroke:none;" d="M165.333 228.667C165.278 228.722 165.222 229.778 165.667 229.333C165.722 229.278 165.778 228.222 165.333 228.667z"/>
<path style="fill:#d5d5d5; stroke:none;" d="M318.333 228.667C318.278 228.722 318.222 229.778 318.667 229.333C318.722 229.278 318.778 228.222 318.333 228.667z"/>
<path style="fill:#b3b3b3; stroke:none;" d="M265.333 230.667C265.278 230.722 265.222 231.778 265.667 231.333C265.722 231.278 265.778 230.222 265.333 230.667z"/>
<path style="fill:#d1d1d1; stroke:none;" d="M319.333 230.667C319.278 230.722 319.222 231.778 319.667 231.333C319.722 231.278 319.778 230.222 319.333 230.667z"/>
<path style="fill:#c1b9b9; stroke:none;" d="M254.333 231.667C254.278 231.722 254.222 232.778 254.667 232.333C254.722 232.278 254.778 231.222 254.333 231.667z"/>
<path style="fill:#e1dddd; stroke:none;" d="M163.333 232.667C163.278 232.722 163.222 233.778 163.667 233.333C163.722 233.278 163.778 232.222 163.333 232.667z"/>
<path style="fill:#999999; stroke:none;" d="M264 232C263.598 233.944 263.598 234.056 264 236C264.71 234.24 264.71 233.759 264 232z"/>
<path style="fill:#cdcdcd; stroke:none;" d="M320.333 232.667C320.278 232.722 320.222 233.778 320.667 233.333C320.722 233.278 320.778 232.222 320.333 232.667z"/>
<path style="fill:#bdbdbd; stroke:none;" d="M253.333 233.667C253.278 233.722 253.222 234.778 253.667 234.333C253.722 234.278 253.778 233.222 253.333 233.667z"/>
<path style="fill:#bfbfbf; stroke:none;" d="M195 234L196 235L195 234z"/>
<path style="fill:#cdcdcd; stroke:none;" d="M194.333 235.667C194.278 235.722 194.222 236.778 194.667 236.333C194.722 236.278 194.778 235.222 194.333 235.667z"/>
<path style="fill:#cdcdc5; stroke:none;" d="M252.333 235.667C252.278 235.722 252.222 236.778 252.667 236.333C252.722 236.278 252.778 235.222 252.333 235.667z"/>
<path style="fill:#c7c7c7; stroke:none;" d="M321 235L322 236L321 235z"/>
<path style="fill:#dfdbdb; stroke:none;" d="M161.333 236.667C161.278 236.722 161.222 237.778 161.667 237.333C161.722 237.278 161.778 236.222 161.333 236.667z"/>
<path style="fill:#c9c9c3; stroke:none;" d="M251.333 237.667C251.278 237.722 251.222 238.778 251.667 238.333C251.722 238.278 251.778 237.222 251.333 237.667z"/>
<path style="fill:#c5bdbd; stroke:none;" d="M265.333 237.667C265.278 237.722 265.222 238.778 265.667 238.333C265.722 238.278 265.778 237.222 265.333 237.667z"/>
<path style="fill:#e7e7e3; stroke:none;" d="M160.333 238.667C160.278 238.722 160.222 239.778 160.667 239.333C160.722 239.278 160.778 238.222 160.333 238.667z"/>
<path style="fill:#e3d9d9; stroke:none;" d="M192 238L192 241C192.696 239.446 192.696 239.554 192 238z"/>
<path style="fill:#ababab; stroke:none;" d="M193 238L194 239L193 238z"/>
<path style="fill:#c1c1c1; stroke:none;" d="M250.333 239.667C250.278 239.722 250.222 240.778 250.667 240.333C250.722 240.278 250.778 239.222 250.333 239.667z"/>
<path style="fill:#c9bdbd; stroke:none;" d="M266 239L267 243C267.393 241.076 267.146 240.64 266 239z"/>
<path style="fill:#e3dfdd; stroke:none;" d="M159 240L158 244C159.146 242.36 159.393 241.924 159 240z"/>
<path style="fill:#ababab; stroke:none;" d="M323 240L324 241L323 240z"/>
<path style="fill:#f1edef; stroke:none;" d="M324 240C325.023 245.737 328.082 251 331 256C331.831 251.009 327.14 243.79 324 240z"/>
<path style="fill:#c9c3c3; stroke:none;" d="M249.333 241.667C249.278 241.722 249.222 242.778 249.667 242.333C249.722 242.278 249.778 241.222 249.333 241.667z"/>
<path style="fill:#ede9e9; stroke:none;" d="M341 242C341.739 244.567 342.682 246.673 344 249C344.505 245.93 343.151 244.152 341 242z"/>
<path style="fill:#b9b9b9; stroke:none;" d="M268.333 243.667C268.278 243.722 268.222 244.778 268.667 244.333C268.722 244.278 268.778 243.222 268.333 243.667z"/>
<path style="fill:#cbcbcb; stroke:none;" d="M248 244L249 245L248 244z"/>
<path style="fill:#d3d3d3; stroke:none;" d="M156.333 245.667C156.278 245.722 156.222 246.778 156.667 246.333C156.722 246.278 156.778 245.222 156.333 245.667z"/>
<path style="fill:#c3bfc3; stroke:none;" d="M247.333 245.667C247.278 245.722 247.222 246.778 247.667 246.333C247.722 246.278 247.778 245.222 247.333 245.667z"/>
<path style="fill:#d5d5d5; stroke:none;" d="M188.333 246.667C188.278 246.722 188.222 247.778 188.667 247.333C188.722 247.278 188.778 246.222 188.333 246.667z"/>
<path style="fill:#cdcdcd; stroke:none;" d="M269 246L270 250C270.553 247.992 270.303 247.668 269 246z"/>
<path style="fill:#e9e9e7; stroke:none;" d="M155 247L154 251C155.434 249.607 156.045 248.767 157 247L155 247z"/>
<path style="fill:#ababab; stroke:none;" d="M188 248L189 249L188 248z"/>
<path style="fill:#cdcdcd; stroke:none;" d="M246 248L247 249L246 248M187 249L188 250L187 249z"/>
<path style="fill:#d1d1d1; stroke:none;" d="M245.333 249.667C245.278 249.722 245.222 250.778 245.667 250.333C245.722 250.278 245.778 249.222 245.333 249.667z"/>
<path style="fill:#d9d9d9; stroke:none;" d="M345.333 249.667C345.278 249.722 345.222 250.778 345.667 250.333C345.722 250.278 345.778 249.222 345.333 249.667z"/>
<path style="fill:#dddddd; stroke:none;" d="M186.333 250.667C186.278 250.722 186.222 251.778 186.667 251.333C186.722 251.278 186.778 250.222 186.333 250.667z"/>
<path style="fill:#ababab; stroke:none;" d="M271 250L272 251L271 250z"/>
<path style="fill:#ddddd5; stroke:none;" d="M153 251L152 255C153.303 253.332 153.553 253.008 153 251z"/>
<path style="fill:#e1e1d7; stroke:none;" d="M346.333 251.667C346.278 251.722 346.222 252.778 346.667 252.333C346.722 252.278 346.778 251.222 346.333 251.667z"/>
<path style="fill:#d5d5d5; stroke:none;" d="M185.333 252.667C185.278 252.722 185.222 253.778 185.667 253.333C185.722 253.278 185.778 252.222 185.333 252.667z"/>
<path style="fill:#ababab; stroke:none;" d="M243 253L244 254L243 253z"/>
<path style="fill:#d1d1d1; stroke:none;" d="M272 253L273 254L272 253z"/>
<path style="fill:#e7dfdf; stroke:none;" d="M347.333 253.667C347.278 253.722 347.222 254.778 347.667 254.333C347.722 254.278 347.778 253.222 347.333 253.667z"/>
<path style="fill:#dbdbdb; stroke:none;" d="M184.333 254.667C184.278 254.722 184.222 255.778 184.667 255.333C184.722 255.278 184.778 254.222 184.333 254.667z"/>
<path style="fill:#ababab; stroke:none;" d="M273 254L274 255L273 254z"/>
<path style="fill:#d7d7d7; stroke:none;" d="M242 255C240.957 257.095 240.397 258.699 240 261C241.631 258.957 242.444 257.583 242 255z"/>
<path style="fill:#d3d3cb; stroke:none;" d="M274.333 256.667C274.278 256.722 274.222 257.778 274.667 257.333C274.722 257.278 274.778 256.222 274.333 256.667z"/>
<path style="fill:#ababab; stroke:none;" d="M331 256L332 257L331 256M275 258L276 259L275 258z"/>
<path style="fill:#cdcdcd; stroke:none;" d="M182 259L183 260L182 259z"/>
<path style="fill:#d3d3d3; stroke:none;" d="M149 260L150 261L149 260z"/>
<path style="fill:#dfbfbf; stroke:none;" d="M239 260L237 266C238.915 263.968 239.744 262.735 239 260z"/>
<path style="fill:#ababab; stroke:none;" d="M276 260L277 261L276 260M333 260L334 261L333 260z"/>
<path style="fill:#d1d1d1; stroke:none;" d="M350 260L351 261L350 260z"/>
<path style="fill:#e1dbdb; stroke:none;" d="M148.333 261.667C148.278 261.722 148.222 262.778 148.667 262.333C148.722 262.278 148.778 261.222 148.333 261.667z"/>
<path style="fill:#e9e9e5; stroke:none;" d="M276 261C276.776 263.132 277.13 263.771 279 265C278.045 263.233 277.434 262.393 276 261z"/>
<path style="fill:#d3cbd3; stroke:none;" d="M334 261L335 262L334 261z"/>
<path style="fill:#ffffab; stroke:none;" d="M180 263L181 264L180 263z"/>
<path style="fill:#ababab; stroke:none;" d="M335 264L336 265L335 264z"/>
<path style="fill:#e9e9e5; stroke:none;" d="M146.333 265.667C146.278 265.722 146.222 266.778 146.667 266.333C146.722 266.278 146.778 265.222 146.333 265.667z"/>
<path style="fill:#ababab; stroke:none;" d="M278 265L279 266L278 265M145 266L146 267L145 266z"/>
<path style="fill:#cfcfcf; stroke:none;" d="M236 266L233 274C235.398 271.629 236.696 269.107 238 266L236 266z"/>
<path style="fill:#e3c7c7; stroke:none;" d="M145 267L144 271C145.146 269.36 145.393 268.924 145 267z"/>
<path style="fill:#ffabab; stroke:none;" d="M178 267L179 268L178 267z"/>
<path style="fill:#ffffab; stroke:none;" d="M337 268L338 269L337 268z"/>
<path style="fill:#ababab; stroke:none;" d="M143 270L144 271L143 270z"/>
<path style="fill:#d1d1d1; stroke:none;" d="M143 271C142.014 272.479 142 272.203 142 274C143.289 272.557 143.401 272.766 143 271z"/>
<path style="fill:#cdcdcd; stroke:none;" d="M339.333 271.667C339.278 271.722 339.222 272.778 339.667 272.333C339.722 272.278 339.778 271.222 339.333 271.667z"/>
<path style="fill:#dddddd; stroke:none;" d="M141 274L140 278C141.303 276.332 141.553 276.008 141 274z"/>
<path style="fill:#e3dfe3; stroke:none;" d="M232 274L232 277C233.015 275.861 233.309 275.388 234 274L232 274z"/>
<path style="fill:#ababab; stroke:none;" d="M283 275L284 276L283 275z"/>
<path style="fill:#cdcdcd; stroke:none;" d="M341.333 275.667C341.278 275.722 341.222 276.778 341.667 276.333C341.722 276.278 341.778 275.222 341.333 275.667z"/>
<path style="fill:#c3c3c3; stroke:none;" d="M231.333 276.667C231.278 276.722 231.222 277.778 231.667 277.333C231.722 277.278 231.778 276.222 231.333 276.667z"/>
<path style="fill:#d3d3d3; stroke:none;" d="M139.333 278.667C139.278 278.722 139.222 279.778 139.667 279.333C139.722 279.278 139.778 278.222 139.333 278.667z"/>
<path style="fill:#c7c7c7; stroke:none;" d="M230.333 278.667C230.278 278.722 230.222 279.778 230.667 279.333C230.722 279.278 230.778 278.222 230.333 278.667z"/>
<path style="fill:#e3c7c7; stroke:none;" d="M360.333 278.667C360.278 278.722 360.222 279.778 360.667 279.333C360.722 279.278 360.778 278.222 360.333 278.667z"/>
<path style="fill:#d3d3c9; stroke:none;" d="M285.333 279.667C285.278 279.722 285.222 280.778 285.667 280.333C285.722 280.278 285.778 279.222 285.333 279.667z"/>
<path style="fill:#d5d5d5; stroke:none;" d="M343.333 279.667C343.278 279.722 343.222 280.778 343.667 280.333C343.722 280.278 343.778 279.222 343.333 279.667z"/>
<path style="fill:#edebeb; stroke:none;" d="M138 280L137 284C138.434 282.607 139.045 281.767 140 280L138 280z"/>
<path style="fill:#e3e3e3; stroke:none;" d="M229 280L229 283C230.015 281.861 230.309 281.388 231 280L229 280z"/>
<path style="fill:#d7d7d7; stroke:none;" d="M361.333 280.667C361.278 280.722 361.222 281.778 361.667 281.333C361.722 281.278 361.778 280.222 361.333 280.667z"/>
<path style="fill:#d1d1d1; stroke:none;" d="M286.333 281.667C286.278 281.722 286.222 282.778 286.667 282.333C286.722 282.278 286.778 281.222 286.333 281.667z"/>
<path style="fill:#e5e1e1; stroke:none;" d="M287 284L287 286L289 286C288.455 284.365 288.635 284.545 287 284z"/>
<path style="fill:#dfd7d7; stroke:none;" d="M363.333 284.667C363.278 284.722 363.222 285.778 363.667 285.333C363.722 285.278 363.778 284.222 363.333 284.667z"/>
<path style="fill:#cdcdcd; stroke:none;" d="M347.333 287.667C347.278 287.722 347.222 288.778 347.667 288.333C347.722 288.278 347.778 287.222 347.333 287.667z"/>
<path style="fill:#bfbfbf; stroke:none;" d="M348 290L349 291L348 290z"/>
<path style="fill:#e3e3e3; stroke:none;" d="M349.333 291.667C349.278 291.722 349.222 292.778 349.667 292.333C349.722 292.278 349.778 291.222 349.333 291.667z"/>
<path style="fill:#d3d3cd; stroke:none;" d="M366 291L367 292L366 291z"/>
<path style="fill:#c7c7c7; stroke:none;" d="M223.333 293.667C223.278 293.722 223.222 294.778 223.667 294.333C223.722 294.278 223.778 293.222 223.333 293.667z"/>
<path style="fill:#c7c7ab; stroke:none;" d="M164 294L163 297L169 297L164 294z"/>
<path style="fill:#bfbfbf; stroke:none;" d="M222 295L218 296C219.553 296.89 223.08 297.616 222 295z"/>
<path style="fill:#d9d9d9; stroke:none;" d="M351.333 295.667C351.278 295.722 351.222 296.778 351.667 296.333C351.722 296.278 351.778 295.222 351.333 295.667z"/>
<path style="fill:#f9f5f3; stroke:none;" d="M163 297C168.463 299.292 176.113 298 182 298L223 298C217.293 295.605 209.154 297 203 297C189.589 297 176.348 296.496 163 297z"/>
<path style="fill:#bfbfbf; stroke:none;" d="M170 296L171 297L170 296z"/>
<path style="fill:#ffabab; stroke:none;" d="M177 296L178 297L177 296z"/>
<path style="fill:#ffffab; stroke:none;" d="M178 296C179.248 296.685 179.548 296.749 181 297C179.752 296.315 179.452 296.251 178 296z"/>
<path style="fill:#bfbfbf; stroke:none;" d="M182 296C190.367 299.511 203.924 297 213 297C204.633 293.489 191.076 296 182 296z"/>
<path style="fill:#ababab; stroke:none;" d="M213 296C214.769 296.779 216.036 296.912 218 297C216.231 296.221 214.964 296.088 213 296z"/>
<path style="fill:#dfdfdf; stroke:none;" d="M352.333 297.667C352.278 297.722 352.222 298.778 352.667 298.333C352.722 298.278 352.778 297.222 352.333 297.667z"/>
<path style="fill:#dbd7d7; stroke:none;" d="M129.333 298.667C129.278 298.722 129.222 299.778 129.667 299.333C129.722 299.278 129.778 298.222 129.333 298.667z"/>
<path style="fill:#ffabab; stroke:none;" d="M128 300L129 301L128 300z"/>
<path style="fill:#d5d5d5; stroke:none;" d="M354.333 301.667C354.278 301.722 354.222 302.778 354.667 302.333C354.722 302.278 354.778 301.222 354.333 301.667z"/>
<path style="fill:#dbdbdb; stroke:none;" d="M127.333 302.667C127.278 302.722 127.222 303.778 127.667 303.333C127.722 303.278 127.778 302.222 127.333 302.667z"/>
<path style="fill:#e3e3e3; stroke:none;" d="M355 303L356 307C356.393 305.076 356.146 304.64 355 303z"/>
<path style="fill:#ebe3e3; stroke:none;" d="M126.333 304.667C126.278 304.722 126.222 305.778 126.667 305.333C126.722 305.278 126.778 304.222 126.333 304.667z"/>
<path style="fill:#f3f1ef; stroke:none;" d="M137 305C141.469 306.875 147.191 306 152 306L182 306L288 306C283.531 304.125 277.809 305 273 305L243 305L137 305z"/>
<path style="fill:#e9e7e7; stroke:none;" d="M125.333 306.667C125.278 306.722 125.222 307.778 125.667 307.333C125.722 307.278 125.778 306.222 125.333 306.667z"/>
<path style="fill:#dbdbdb; stroke:none;" d="M136 306L135 310C136.303 308.332 136.553 308.008 136 306z"/>
<path style="fill:#010101; stroke:none;" d="M137 306C132.934 318.118 125.956 329.582 120.247 341C118.813 343.868 114.202 350.126 116.284 353.397C118.103 356.255 125.149 355 128 355L162 355L257 355C273.577 355 291.68 357.03 308 354C307.01 341.98 298.172 328.771 292.872 318.004C291.12 314.445 289.531 308.415 285.61 306.603C282.168 305.011 276.71 306 273 306L243 306L137 306z"/>
<path style="fill:#ababab; stroke:none;" d="M287.333 306.667C287.278 306.722 287.222 307.778 287.667 307.333C287.722 307.278 287.778 306.222 287.333 306.667z"/>
<path style="fill:#dfbfbf; stroke:none;" d="M288.333 307.667C288.278 307.722 288.222 308.778 288.667 308.333C288.722 308.278 288.778 307.222 288.333 307.667z"/>
<path style="fill:#ababab; stroke:none;" d="M375 307L376 308L375 307z"/>
<path style="fill:#d3d3d3; stroke:none;" d="M357 308L358 309L357 308z"/>
<path style="fill:#e1e1e1; stroke:none;" d="M288.667 309.333C288.222 309.778 289.278 309.722 289.333 309.667C289.778 309.222 288.722 309.278 288.667 309.333z"/>
<path style="fill:#d9d9d9; stroke:none;" d="M358.333 309.667C358.278 309.722 358.222 310.778 358.667 310.333C358.722 310.278 358.778 309.222 358.333 309.667z"/>
<path style="fill:#bfbfbf; stroke:none;" d="M289 310L289 312L291 312C290.455 310.365 290.635 310.545 289 310z"/>
<path style="fill:#d1d1d1; stroke:none;" d="M122.333 311.667C122.278 311.722 122.222 312.778 122.667 312.333C122.722 312.278 122.778 311.222 122.333 311.667z"/>
<path style="fill:#bfbfbf; stroke:none;" d="M134.333 311.667C134.278 311.722 134.222 312.778 134.667 312.333C134.722 312.278 134.778 311.222 134.333 311.667z"/>
<path style="fill:#ababab; stroke:none;" d="M377 311L378 312L377 311z"/>
<path style="fill:#d7d7d7; stroke:none;" d="M121 313L120 317C121.303 315.332 121.553 315.008 121 313z"/>
<path style="fill:#d1d1d1; stroke:none;" d="M291 313L291 316C291.696 314.446 291.696 314.554 291 313z"/>
<path style="fill:#d5d5d5; stroke:none;" d="M132.333 315.667C132.278 315.722 132.222 316.778 132.667 316.333C132.722 316.278 132.778 315.222 132.333 315.667z"/>
<path style="fill:#dddddd; stroke:none;" d="M361.333 315.667C361.278 315.722 361.222 316.778 361.667 316.333C361.722 316.278 361.778 315.222 361.333 315.667M379.333 315.667C379.278 315.722 379.222 316.778 379.667 316.333C379.722 316.278 379.778 315.222 379.333 315.667z"/>
<path style="fill:#bfbfbf; stroke:none;" d="M292.333 316.667C292.278 316.722 292.222 317.778 292.667 317.333C292.722 317.278 292.778 316.222 292.333 316.667z"/>
<path style="fill:#d3d3d3; stroke:none;" d="M131 317L130 321C131.146 319.36 131.393 318.924 131 317z"/>
<path style="fill:#cbc5cb; stroke:none;" d="M119 318L120 319L119 318z"/>
<path style="fill:#ababab; stroke:none;" d="M293.333 318.667C293.278 318.722 293.222 319.778 293.667 319.333C293.722 319.278 293.778 318.222 293.333 318.667z"/>
<path style="fill:#d3d3d3; stroke:none;" d="M118.333 319.667C118.278 319.722 118.222 320.778 118.667 320.333C118.722 320.278 118.778 319.222 118.333 319.667z"/>
<path style="fill:#e9e5e3; stroke:none;" d="M304.333 320.667C304.278 320.722 304.222 321.778 304.667 321.333C304.722 321.278 304.778 320.222 304.333 320.667z"/>
<path style="fill:#cdcdcd; stroke:none;" d="M129.333 321.667C129.278 321.722 129.222 322.778 129.667 322.333C129.722 322.278 129.778 321.222 129.333 321.667z"/>
<path style="fill:#c9c9c9; stroke:none;" d="M305.333 321.667C305.278 321.722 305.222 322.778 305.667 322.333C305.722 322.278 305.778 321.222 305.333 321.667z"/>
<path style="fill:#d1d1cb; stroke:none;" d="M117 322L118 323L117 322z"/>
<path style="fill:#d1d1d1; stroke:none;" d="M295 322L296 323L295 322z"/>
<path style="fill:#d7d7d3; stroke:none;" d="M116.333 323.667C116.278 323.722 116.222 324.778 116.667 324.333C116.722 324.278 116.778 323.222 116.333 323.667z"/>
<path style="fill:#cdcdcd; stroke:none;" d="M128.333 323.667C128.278 323.722 128.222 324.778 128.667 324.333C128.722 324.278 128.778 323.222 128.333 323.667z"/>
<path style="fill:#d1d1d1; stroke:none;" d="M296 324L297 325L296 324z"/>
<path style="fill:#e5e3e1; stroke:none;" d="M306.333 324.667C306.278 324.722 306.222 325.778 306.667 325.333C306.722 325.278 306.778 324.222 306.333 324.667z"/>
<path style="fill:#ababab; stroke:none;" d="M115 325L116 326L115 325z"/>
<path style="fill:#c5c5c5; stroke:none;" d="M307.333 325.667C307.278 325.722 307.222 326.778 307.667 326.333C307.722 326.278 307.778 325.222 307.333 325.667z"/>
<path style="fill:#d5d5d5; stroke:none;" d="M297.333 326.667C297.278 326.722 297.222 327.778 297.667 327.333C297.722 327.278 297.778 326.222 297.333 326.667z"/>
<path style="fill:#d7d7d3; stroke:none;" d="M114.333 327.667C114.278 327.722 114.222 328.778 114.667 328.333C114.722 328.278 114.778 327.222 114.333 327.667z"/>
<path style="fill:#d3d3cb; stroke:none;" d="M126 327C124.957 329.095 124.397 330.699 124 333C125.631 330.957 126.444 329.583 126 327z"/>
<path style="fill:#bfbfbf; stroke:none;" d="M308 327L309 328L308 327M113 328L112 332C113.303 330.332 113.553 330.008 113 328z"/>
<path style="fill:#cdcdcd; stroke:none;" d="M298.333 328.667C298.278 328.722 298.222 329.778 298.667 329.333C298.722 329.278 298.778 328.222 298.333 328.667z"/>
<path style="fill:#ff81ff; stroke:none;" d="M298 330L299 331L298 330z"/>
<path style="fill:#c5c5c5; stroke:none;" d="M299 330L300 335C300.651 332.766 300.318 331.926 299 330z"/>
<path style="fill:#ababab; stroke:none;" d="M309 330L310 331L309 330z"/>
<path style="fill:#c7c7c7; stroke:none;" d="M111.333 332.667C111.278 332.722 111.222 333.778 111.667 333.333C111.722 333.278 111.778 332.222 111.333 332.667z"/>
<path style="fill:#d9d9d1; stroke:none;" d="M123 333L122 337C123.146 335.36 123.393 334.924 123 333z"/>
<path style="fill:#cfcfcf; stroke:none;" d="M110.333 334.667C110.278 334.722 110.222 335.778 110.667 335.333C110.722 335.278 110.778 334.222 110.333 334.667z"/>
<path style="fill:#c7c7c7; stroke:none;" d="M301 335L302 339C302.553 336.992 302.303 336.668 301 335z"/>
<path style="fill:#d3cdcd; stroke:none;" d="M311 335L312 336L311 335z"/>
<path style="fill:#cdcdcd; stroke:none;" d="M109.333 336.667C109.278 336.722 109.222 337.778 109.667 337.333C109.722 337.278 109.778 336.222 109.333 336.667M121.333 337.667C121.278 337.722 121.222 338.778 121.667 338.333C121.722 338.278 121.778 337.222 121.333 337.667M108.333 338.667C108.278 338.722 108.222 339.778 108.667 339.333C108.722 339.278 108.778 338.222 108.333 338.667z"/>
<path style="fill:#d5d5d5; stroke:none;" d="M120.333 339.667C120.278 339.722 120.222 340.778 120.667 340.333C120.722 340.278 120.778 339.222 120.333 339.667z"/>
<path style="fill:#c9c9c9; stroke:none;" d="M303 339L304 343C304.553 340.992 304.303 340.668 303 339z"/>
<path style="fill:#bfbfbf; stroke:none;" d="M372 339L373 340L372 339z"/>
<path style="fill:#c9c9c9; stroke:none;" d="M107.333 340.667C107.278 340.722 107.222 341.778 107.667 341.333C107.722 341.278 107.778 340.222 107.333 340.667z"/>
<path style="fill:#e3e3e3; stroke:none;" d="M373.333 340.667C373.278 340.722 373.222 341.778 373.667 341.333C373.722 341.278 373.778 340.222 373.333 340.667z"/>
<path style="fill:#ababab; stroke:none;" d="M119 342L120 343L119 342z"/>
<path style="fill:#bfbfbf; stroke:none;" d="M118.333 343.667C118.278 343.722 118.222 344.778 118.667 344.333C118.722 344.278 118.778 343.222 118.333 343.667z"/>
<path style="fill:#cdcdcd; stroke:none;" d="M305.333 343.667C305.278 343.722 305.222 344.778 305.667 344.333C305.722 344.278 305.778 343.222 305.333 343.667z"/>
<path style="fill:#c9c9c9; stroke:none;" d="M105.333 344.667C105.278 344.722 105.222 345.778 105.667 345.333C105.722 345.278 105.778 344.222 105.333 344.667z"/>
<path style="fill:#d5d1d5; stroke:none;" d="M306 345L307 346L306 345z"/>
<path style="fill:#ababab; stroke:none;" d="M117 346L118 347L117 346z"/>
<path style="fill:#bfbfbf; stroke:none;" d="M116.333 347.667C116.278 347.722 116.222 348.778 116.667 348.333C116.722 348.278 116.778 347.222 116.333 347.667z"/>
<path style="fill:#dbdbdb; stroke:none;" d="M115 349C114.014 350.479 114 350.203 114 352C115.289 350.557 115.401 350.766 115 349z"/>
<path style="fill:#bfbfbf; stroke:none;" d="M307 349C307.849 350.991 308.267 351.778 310 353C309.224 350.868 308.87 350.229 307 349z"/>
<path style="fill:#d7d3d3; stroke:none;" d="M102 351L103 352L102 351z"/>
<path style="fill:#cbcbcb; stroke:none;" d="M101.333 352.667C101.278 352.722 101.222 353.778 101.667 353.333C101.722 353.278 101.778 352.222 101.333 352.667z"/>
<path style="fill:#c7c7c7; stroke:none;" d="M113 352L112 356L116 355C114.999 353.076 114.923 352.902 113 352z"/>
<path style="fill:#ffffff; stroke:none;" d="M115 353L116 354L115 353z"/>
<path style="fill:#b39999; stroke:none;" d="M308 353C308.902 354.923 309.076 354.999 311 356C310.101 353.876 310.124 353.899 308 353z"/>
<path style="fill:#d1d1d1; stroke:none;" d="M398 353L399 354L398 353z"/>
<path style="fill:#ffffff; stroke:none;" d="M305 354L306 355L305 354z"/>
<path style="fill:#c1b7b7; stroke:none;" d="M306 354C307.314 355.618 307.877 355.693 310 356C308.542 354.919 307.752 354.564 306 354z"/>
<path style="fill:#cfcfcf; stroke:none;" d="M115 355C121.678 357.802 131.784 356 139 356L192 356C185.322 353.198 175.216 355 168 355L115 355z"/>
<path style="fill:#dbdbd3; stroke:none;" d="M192 355C197.217 357.189 204.381 356 210 356L248 356C242.784 353.811 235.619 355 230 355L192 355z"/>
<path style="fill:#cfcfcf; stroke:none;" d="M248 355C254.687 357.806 264.767 356 272 356C265.313 353.194 255.233 355 248 355z"/>
<path style="fill:#dbdbdb; stroke:none;" d="M272 355C275.699 356.552 280.017 356 284 356L306 356C302.301 354.448 297.983 355 294 355L272 355z"/>
<path style="fill:#dfdbdb; stroke:none;" d="M98.6667 357.333C98.2222 357.778 99.2778 357.722 99.3333 357.667C99.7778 357.222 98.7222 357.278 98.6667 357.333z"/>
<path style="fill:#bfbfbf; stroke:none;" d="M382.333 360.667C382.278 360.722 382.222 361.778 382.667 361.333C382.722 361.278 382.778 360.222 382.333 360.667z"/>
</svg>
